<svg xmlns="http://www.w3.org/2000/svg" viewBox="0 0 48 48" fill="none">
  <rect width="48" height="48" rx="8" fill="#25D366"/>
  <path d="M24 8C15.163 8 8 15.163 8 24C8 27.073 8.962 29.926 10.6 32.275L8.5 39.5L16.025 37.462C18.275 38.962 20.987 39.85 23.9 39.975C32.85 40.312 40.175 33.075 39.988 24.1C39.825 16.288 32.85 8 24 8ZM32.35 29.825C32.025 30.625 30.675 31.35 29.75 31.525C29.075 31.65 28.2 31.75 25.3 30.575C21.65 29.1 19.3 25.4 19.1 25.125C18.9 24.85 17.35 22.825 17.35 20.725C17.35 18.625 18.475 17.6 18.9 17.15C19.25 16.775 19.825 16.6 20.375 16.6C20.55 16.6 20.7 16.612 20.85 16.625C21.275 16.65 21.488 16.675 21.762 17.35C22.1 18.175 22.9 20.275 23 20.475C23.1 20.675 23.175 20.925 23.05 21.2C22.925 21.475 22.838 21.6 22.638 21.825C22.438 22.05 22.25 22.225 22.05 22.475C21.862 22.7 21.65 22.938 21.875 23.363C22.1 23.788 22.888 25.075 24.05 26.1C25.538 27.413 26.75 27.825 27.238 28.025C27.588 28.175 28.013 28.138 28.25 27.875C28.55 27.538 28.913 26.988 29.288 26.45C29.55 26.075 29.888 26.025 30.275 26.175C30.663 26.325 32.75 27.35 33.175 27.563C33.6 27.775 33.875 27.875 33.975 28.05C34.088 28.25 34.088 29.125 33.762 30.125L32.35 29.825Z" fill="white"/>
</svg>
